<?xml version="1.0" encoding="utf-8"?>
<!-- Generator: Adobe Illustrator 18.0.0, SVG Export Plug-In . SVG Version: 6.00 Build 0)  -->
<!DOCTYPE svg PUBLIC "-//W3C//DTD SVG 1.1//EN" "http://www.w3.org/Graphics/SVG/1.1/DTD/svg11.dtd">
<svg version="1.1" id="Layer_1" xmlns="http://www.w3.org/2000/svg" xmlns:xlink="http://www.w3.org/1999/xlink" x="0px" y="0px"
	 viewBox="0 0 212.1941833 32.9536133" enable-background="new 0 0 212.1941833 32.9536133" xml:space="preserve">
<g>
	<path fill="#B08B19" d="M210.1401672,5.5209961c1.1159668,0,2.0540161,0.8828125,2.0540161,2.0380859
		c0,1.1777344-0.9380493,2.0595703-2.0540161,2.0595703c-1.1229858,0-2.065979-0.8818359-2.065979-2.0595703
		C208.0741882,6.4038086,209.0171814,5.5209961,210.1401672,5.5209961 M210.1401672,9.3188477
		c0.947998,0,1.6809692-0.7568359,1.6809692-1.7597656c0-0.9799805-0.7329712-1.7363281-1.6809692-1.7363281
		c-0.9589844,0-1.6950073,0.7563477-1.6950073,1.7363281C208.4451599,8.5620117,209.1811829,9.3188477,210.1401672,9.3188477
		 M209.3391418,6.3696289h0.9260254c0.5679932,0,0.8380127,0.2260742,0.8380127,0.6860352
		c0,0.4321289-0.2730103,0.6132813-0.6300049,0.6503906l0.6849976,1.0585938h-0.4000244l-0.6519775-1.0307617h-0.3939819v1.0307617
		h-0.3730469V6.3696289z M209.7121887,7.4326172h0.3889771c0.3289795,0,0.6309814-0.015625,0.6309814-0.3945313
		c0-0.3154297-0.2730103-0.3671875-0.526001-0.3671875h-0.4939575V7.4326172z"/>
	<path fill="#B08B19" d="M42.0561829,9.0834961v1.6357422c0.6719971-0.6728516,1.3999939-1.1757813,2.1809998-1.5136719
		c0.7810059-0.3359375,1.6170044-0.5053711,2.5090027-0.5053711c1.9360046,0,3.5809937,0.7333984,4.9349976,2.1962891
		c1.3540039,1.4638672,2.0320129,3.3408203,2.0320129,5.6318359c0,2.2080078-0.6990051,4.0561523-2.1000061,5.5419922
		c-1.3999939,1.4853516-3.0580139,2.2299805-4.9769897,2.2299805c-0.8530273,0-1.6490173-0.1518555-2.3850098-0.4580078
		c-0.7369995-0.3037109-1.4680176-0.8017578-2.1950073-1.4936523v6.996582h-3.6950073V9.0834961H42.0561829z M45.9682007,12.1381836
		c-1.1720276,0-2.1440125,0.3994141-2.9170227,1.1982422c-0.7729797,0.8017578-1.1600037,1.8461914-1.1600037,3.1362305
		c0,1.3178711,0.3870239,2.3847656,1.1600037,3.1977539c0.7730103,0.8129883,1.7449951,1.2202148,2.9170227,1.2202148
		c1.1359863,0,2.0939941-0.4130859,2.8699951-1.2412109c0.7779846-0.8271484,1.1669922-1.8808594,1.1669922-3.1630859
		c0-1.2719727-0.3819885-2.3139648-1.1459961-3.1289063C48.0961914,12.5444336,47.1331787,12.1381836,45.9682007,12.1381836"/>
	<path fill="#B08B19" d="M63.7617188,8.7011719c1.3999939,0,2.7160034,0.3510742,3.947998,1.0493164
		c1.2319946,0.7016602,2.1919861,1.6518555,2.8829956,2.8505859c0.6910095,1.2001953,1.0360107,2.4941406,1.0360107,3.8852539
		c0,1.4008789-0.3470154,2.7089844-1.0420227,3.9267578c-0.6959839,1.2172852-1.6439819,2.1713867-2.8429871,2.8574219
		c-1.1990051,0.6855469-2.5220032,1.0288086-3.9680176,1.0288086c-2.1279907,0-3.9429932-0.7568359-5.446991-2.2700195
		s-2.2569885-3.3520508-2.2569885-5.5161133c0-2.3168945,0.8500061-4.2480469,2.5509949-5.7939453
		C60.1127014,9.3735352,61.8257141,8.7011719,63.7617188,8.7011719 M63.8227234,12.2060547
		c-1.1550293,0-2.1180115,0.4023438-2.8870239,1.2060547c-0.769989,0.8051758-1.1549988,1.8349609-1.1549988,3.0883789
		c0,1.2910156,0.3789978,2.3359375,1.1410217,3.1357422c0.7599792,0.8012695,1.7229919,1.1992188,2.8880005,1.1992188
		c1.164978,0,2.1349792-0.4023438,2.9089966-1.2133789c0.7739868-0.8076172,1.1619873-1.8486328,1.1619873-3.121582
		c0-1.2719727-0.381012-2.3071289-1.1409912-3.1030273C65.9797058,12.6035156,65.0067139,12.2060547,63.8227234,12.2060547"/>
	<path fill="#B08B19" d="M114.6900024,17.5766602h-11.9620056c0.1719971,1.0541992,0.6329956,1.894043,1.3849792,2.5170898
		c0.7490234,0.6230469,1.7050171,0.9331055,2.8710022,0.9331055c1.3890076,0,2.5870056-0.4863281,3.5870056-1.4589844
		l3.1369934,1.4726563c-0.7809753,1.1083984-1.7189941,1.9301758-2.8089905,2.4599609
		c-1.0920105,0.5332031-2.3880005,0.7993164-3.8890076,0.7993164c-2.3280029,0-4.2229919-0.7329102-5.6879883-2.2021484
		c-1.4630127-1.46875-2.1940002-3.3061523-2.1940002-5.5151367c0-2.2646484,0.7290039-4.1435547,2.1879883-5.6386719
		c1.460022-1.4941406,3.2890015-2.2431641,5.4890137-2.2431641c2.3379822,0,4.2380066,0.7490234,5.7030029,2.2431641
		c1.4639893,1.4951172,2.196991,3.4697266,2.196991,5.9248047L114.6900024,17.5766602z M110.9660034,14.6464844
		c-0.2450256-0.8276367-0.7320251-1.5009766-1.4550171-2.0185547c-0.723999-0.5180664-1.5639954-0.7763672-2.5220032-0.7763672
		c-1.0369873,0-1.9490051,0.2910156-2.7319946,0.8720703c-0.4920044,0.3642578-0.947998,1.0048828-1.3649902,1.9228516H110.9660034z
		"/>
	<path fill="#B08B19" d="M117.7138977,9.0830078h3.1889954v1.8681641c0.3459778-0.7368164,0.8059998-1.2949219,1.3779907-1.6777344
		c0.572998-0.3823242,1.1990051-0.5722656,1.8819885-0.5722656c0.4820251,0,0.9860229,0.1269531,1.5130005,0.3818359
		l-1.1579895,3.2041016c-0.4360046-0.2177734-0.7969971-0.3266602-1.0780029-0.3266602
		c-0.571991,0-1.0559998,0.3549805-1.4519958,1.0629883c-0.394989,0.7099609-0.5929871,2.0986328-0.5929871,4.1728516
		l0.0139771,0.722168v5.9990234h-3.6949768V9.0830078z"/>
	<path fill="#B08B19" d="M128.7771912,3.3554688h3.6959839v7.2270508c0.7269897-0.6259766,1.4580078-1.0976563,2.1929932-1.4106445
		c0.7390137-0.3129883,1.4829712-0.4711914,2.2379761-0.4711914c1.4710083,0,2.7139893,0.5112305,3.7220459,1.527832
		c0.8629761,0.8813477,1.2959595,2.1762695,1.2959595,3.8852539v9.8037109h-3.6699829v-6.5048828
		c0-1.7177734-0.0800171-2.8808594-0.2449951-3.4887695c-0.1619873-0.6103516-0.4420166-1.0629883-0.8370361-1.3642578
		c-0.3959961-0.2998047-0.8839722-0.449707-1.4660034-0.449707c-0.7549438,0-1.4019775,0.25-1.9439697,0.7509766
		c-0.539978,0.5-0.914978,1.1806641-1.1240234,2.0439453c-0.1089478,0.4458008-0.1629639,1.4628906-0.1629639,3.0546875v5.9580078
		h-3.6959839V3.3554688z"/>
	<path fill="#B08B19" d="M152.4881897,8.7011719c1.401001,0,2.7150269,0.3510742,3.9459839,1.0493164
		c1.2340088,0.7016602,2.1950073,1.6518555,2.8850098,2.8505859c0.69104,1.2001953,1.0360107,2.4941406,1.0360107,3.8852539
		c0,1.4008789-0.3469849,2.7089844-1.0419922,3.9267578c-0.6950073,1.2172852-1.6420288,2.1713867-2.8450317,2.8574219
		c-1.197998,0.6855469-2.5209961,1.0288086-3.9649658,1.0288086c-2.1279907,0-3.9440308-0.7568359-5.4470215-2.2700195
		c-1.5059814-1.5131836-2.256958-3.3520508-2.256958-5.5161133c0-2.3168945,0.848999-4.2480469,2.5499878-5.7939453
		C148.8381653,9.3735352,150.5522156,8.7011719,152.4881897,8.7011719 M152.5492249,12.2060547
		c-1.1550293,0-2.118042,0.4023438-2.8890381,1.2060547c-0.7680054,0.8051758-1.1539917,1.8349609-1.1539917,3.0883789
		c0,1.2910156,0.3809814,2.3359375,1.1409912,3.1357422c0.7600098,0.8012695,1.7230225,1.1992188,2.8900146,1.1992188
		c1.1640015,0,2.1339722-0.4023438,2.9069824-1.2133789c0.7739868-0.8076172,1.1610107-1.8486328,1.1610107-3.121582
		c0-1.2719727-0.3779907-2.3071289-1.1380005-3.1030273C154.7051697,12.6035156,153.7331848,12.2060547,152.5492249,12.2060547"/>
	<path fill="#B08B19" d="M208.8650208,17.5766602h-11.9580078c0.1719971,1.0541992,0.6349487,1.894043,1.3839722,2.5170898
		c0.75,0.6230469,1.7070313,0.9331055,2.8699951,0.9331055c1.3900146,0,2.5859985-0.4863281,3.585022-1.4589844l3.1369629,1.4726563
		c-0.782959,1.1083984-1.7189941,1.9301758-2.80896,2.4599609c-1.0910034,0.5332031-2.3859863,0.7993164-3.8859863,0.7993164
		c-2.3260498,0-4.2220459-0.7329102-5.6849976-2.2021484c-1.4650269-1.46875-2.1960449-3.3061523-2.1960449-5.5151367
		c0-2.2646484,0.7290039-4.1435547,2.1890259-5.6386719c1.4589844-1.4941406,3.2869873-2.2431641,5.4869995-2.2431641
		c2.3369751,0,4.2379761,0.7490234,5.6989746,2.2431641c1.4639893,1.4951172,2.1960449,3.4697266,2.1960449,5.9248047
		L208.8650208,17.5766602z M205.1410217,14.6464844c-0.2450562-0.8276367-0.7290039-1.5009766-1.4540405-2.0185547
		c-0.723999-0.5180664-1.5639648-0.7763672-2.5169678-0.7763672c-1.0400391,0-1.9510498,0.2910156-2.7319946,0.8720703
		c-0.493042,0.3642578-0.9490356,1.0048828-1.3690186,1.9228516H205.1410217z"/>
	<path fill="#B08B19" d="M185.618927,24.2993164c-1.0900269,0-2.1960449-0.1938477-3.3170166-0.5805664
		c-1.1199951-0.387207-2.1589966-0.9580078-3.1160278-1.7114258l1.5499878-2.3588867
		c0.822998,0.6132813,1.6620483,1.0761719,2.5140381,1.3901367c0.8519897,0.3168945,1.6690063,0.4760742,2.4559937,0.4760742
		c0.7470093,0,1.3250122-0.1499023,1.7360229-0.4453125c0.4109497-0.296875,0.617981-0.6918945,0.617981-1.1889648v-0.0566406
		c0-0.2861328-0.0910034-0.5351563-0.2720337-0.7451172c-0.1829834-0.2099609-0.4319458-0.3920898-0.7479858-0.5458984
		c-0.3139648-0.1513672-0.6799927-0.2949219-1.0899658-0.4282227c-0.4120483-0.1347656-0.8390503-0.2680664-1.2790527-0.402832
		c-0.5559692-0.1508789-1.1159668-0.3320313-1.6809692-0.5439453c-0.5640259-0.2099609-1.0709839-0.4819336-1.5209961-0.815918
		c-0.4500122-0.3344727-0.8179932-0.75-1.1060181-1.2470703c-0.2860107-0.4970703-0.4299927-1.1083984-0.4299927-1.8339844
		v-0.0561523c0-0.7070313,0.1409912-1.3461914,0.4160156-1.9208984c0.2780151-0.5722656,0.6610107-1.059082,1.1489868-1.4609375
		c0.4869995-0.4003906,1.0629883-0.7060547,1.7230225-0.9169922c0.6599731-0.2089844,1.3639526-0.3139648,2.1109619-0.3139648
		c0.9559937,0,1.9249878,0.152832,2.901001,0.4638672c0.9750366,0.3100586,1.8670044,0.7338867,2.6680298,1.2758789
		l-1.3760376,2.4819336c-0.7279663-0.4418945-1.4649658-0.7910156-2.2099609-1.0488281
		c-0.7479858-0.2592773-1.4379883-0.3891602-2.0690308-0.3891602c-0.6690063,0-1.1929932,0.144043-1.5650024,0.4311523
		c-0.3739624,0.2861328-0.55896,0.6489258-0.55896,1.0888672v0.0561523c0,0.2680664,0.0939941,0.5029297,0.2839966,0.7016602
		c0.1929932,0.203125,0.447998,0.3823242,0.7619629,0.5463867c0.3170166,0.1616211,0.6810303,0.3149414,1.0930176,0.4580078
		c0.4089966,0.1430664,0.8369751,0.2797852,1.2769775,0.4150391c0.5550537,0.171875,1.1110229,0.3730469,1.6650391,0.6015625
		c0.5549927,0.2304688,1.05896,0.5112305,1.5079956,0.8452148c0.4500122,0.3349609,0.8189697,0.7402344,1.1060181,1.2182617
		c0.2879639,0.4765625,0.4309692,1.0605469,0.4309692,1.7475586v0.0561523c0,0.8041992-0.1430054,1.5009766-0.4309692,2.0922852
		c-0.2870483,0.5927734-0.6850586,1.0869141-1.1920166,1.4755859c-0.5059814,0.3920898-1.1050415,0.6879883-1.7960205,0.887207
		C187.1418762,24.1977539,186.4048767,24.2993164,185.618927,24.2993164"/>
	<path fill="#B08B19" d="M92.7776184,9.078125l-0.0010071,8.8041992c-0.0020142,1.546875-1.256012,2.8012695-2.803009,2.8032227
		c-1.5490112-0.0019531-2.803009-1.2563477-2.8059998-2.8032227v-0.0019531V9.078125h-3.697998h-0.0010071v8.8041992
		c0,0.0029297,0.0010071,0.0048828,0.0010071,0.0078125c-0.0079956,1.5444336-1.2600098,2.793457-2.8049927,2.7973633
		c-1.5480042-0.0039063-2.802002-1.2583008-2.8050232-2.8071289V9.078125h-3.697998v8.8022461
		c0.0020142,3.5942383,2.9120178,6.5048828,6.5030212,6.5048828c1.8259888,0,3.4729919-0.7548828,4.6539917-1.9658203
		c1.1809998,1.2109375,2.8280029,1.9658203,4.6549988,1.9658203c3.5910034,0,6.5010071-2.9106445,6.5020142-6.5029297V9.078125
		H92.7776184z"/>
	<path fill="#B08B19" d="M163.3841858,17.8823242V9.0786133h3.6989746v8.8037109
		c0.0020142,1.5473633,1.2559814,2.8012695,2.8049927,2.8032227c1.5469971-0.0019531,2.7999878-1.2558594,2.8029785-2.8032227
		V9.0786133h3.7010498v8.8037109c-0.0040283,3.5922852-2.9130249,6.503418-6.5040283,6.503418
		C166.2941589,24.3857422,163.3861389,21.4746094,163.3841858,17.8823242"/>
	<path fill="#B08B19" d="M0,16.4755859C0.0010071,7.375,7.3760071,0.0009766,16.4779968,0
		C25.5759888,0.0009766,32.95401,7.375,32.95401,16.4755859c0,9.1020508-7.3780212,16.4770508-16.4760132,16.4780273
		C7.3760071,32.9526367,0.0010071,25.5776367,0,16.4755859 M3.6960144,16.4755859
		c0.01297,7.059082,5.7229919,12.7700195,12.7819824,12.7822266c7.0559998-0.012207,12.7669983-5.7231445,12.7799988-12.7822266
		c-0.0130005-7.0556641-5.723999-12.765625-12.7799988-12.7797852C9.4190063,3.7099609,3.7089844,9.4199219,3.6960144,16.4755859"/>
	<polygon fill="#B08B19" points="13.9302063,11.3950195 18.8881836,16.3530273 23.1752014,12.0693359 25.7781982,14.6704102 
		18.8862,21.5600586 13.9302063,16.6020508 9.7771912,20.753418 7.1752014,18.1513672 	"/>
</g>
</svg>
